Coordinates
version=1
nRows=14
nColumns=40
inDegrees=yes

Units are S.I. units (second, meters, Newtons, ...)
Angles are in degrees.

endheader
time	pelvis_tilt	pelvis_list	pelvis_rotation	pelvis_tx	pelvis_ty	pelvis_tz	hip_flexion_r	hip_adduction_r	hip_rotation_r	knee_angle_r	knee_angle_r_beta	ankle_angle_r	subtalar_angle_r	mtp_angle_r	hip_flexion_l	hip_adduction_l	hip_rotation_l	knee_angle_l	knee_angle_l_beta	ankle_angle_l	subtalar_angle_l	mtp_angle_l	lumbar_extension	lumbar_bending	lumbar_rotation	arm_flex_r	arm_add_r	arm_rot_r	elbow_flex_r	pro_sup_r	wrist_flex_r	wrist_dev_r	arm_flex_l	arm_add_l	arm_rot_l	elbow_flex_l	pro_sup_l	wrist_flex_l	wrist_dev_l
      2.61250000	     -3.56304203	     -4.46025949	      3.47079933	      1.01667212	      0.92757613	      0.45355142	      1.46204287	     -2.59216307	    -16.47508975	     22.96834813	     22.96834813	     16.07522314	      4.21464942	     -5.78609376	     22.76844214	     -7.27532995	     -4.92509050	     25.71956802	     25.71956802	      9.61663830	    -13.23427257	      4.82817592	     -7.92283310	      5.91749152	      4.90014372	     24.62299025	    -15.83453410	    -11.88298203	     52.30347737	     45.63587106	      0.00000000	      0.00000000	     -0.55353053	     -9.31851357	      2.94582888	     28.64375157	     44.49305871	      0.00000000	      0.00000000
      2.62571429	     -3.60183740	     -4.36392640	      3.27288650	      1.01683619	      0.92842174	      0.45035585	      2.69199597	     -3.37566020	    -15.79982320	     25.77765400	     25.77765400	     15.34565958	      3.16605997	     -6.90932313	     22.15917222	     -7.05258914	     -5.34323151	     25.37731537	     25.37731537	      9.77599574	    -12.99483688	      4.64398255	     -7.83762127	      5.83148691	      4.91464565	     23.16012240	    -15.84090886	    -11.38731736	     49.88840621	     45.69387209	      0.00000000	      0.00000000	      1.10476531	     -9.64144147	      2.76286536	     29.04858389	     44.56600615	      0.00000000	      0.00000000
      2.63892857	     -3.58068969	     -4.36009301	      3.08730222	      1.01690216	      0.92920435	      0.44733385	      3.83909215	     -3.94517181	    -14.96874434	     28.28809306	     28.28809306	     13.04088258	      1.17239678	    -11.72762686	     21.47316289	     -6.89806469	     -5.58862858	     24.96692876	     24.96692876	      9.77605393	    -13.02127674	      3.82998900	     -7.77104600	      5.79870902	      4.15166105	     23.22194494	    -15.47167370	     -9.34057139	     44.53058961	     45.78845942	      0.00000000	      0.00000000	      2.31966162	    -10.02427274	      1.56314167	     29.61062272	     44.89871669	      0.00000000	      0.00000000
      2.65214286	     -3.56537989	     -4.31904835	      2.86702618	      1.01674403	      0.92984906	      0.44445368	      5.38008097	     -4.60902594	    -14.02231211	     31.56211239	     31.56211239	     11.82117595	     -0.47739942	    -12.84422699	     20.85496605	     -6.72046237	     -5.86754322	     24.67049210	     24.67049210	      9.99213765	    -12.94729253	      3.61419450	     -7.87153657	      5.75435612	      4.24397581	     21.55679828	    -15.45872414	     -8.80506968	     42.76775828	     45.81619670	      0.00000000	      0.00000000	      3.95563772	    -10.40912282	      1.22462063	     30.52032000	     45.00325127	      0.00000000	      0.00000000
      2.66535714	     -3.58252230	     -4.21608638	      2.64824320	      1.01650254	      0.93024012	      0.44165861	      7.16367026	     -5.38246720	    -13.12964252	     35.17232870	     35.17232870	     10.57243416	     -1.83492446	    -13.60470218	     20.26638486	     -6.48300236	     -6.19971231	     24.36098790	     24.36098790	     10.23252356	    -12.81847610	      3.44539730	     -7.90956563	      5.64388756	      4.18561618	     19.83965984	    -15.28501790	     -8.41909557	     41.32890629	     45.83969645	      0.00000000	      0.00000000	      5.55377991	    -10.89920838	      1.01687659	     31.41477566	     45.06745658	      0.00000000	      0.00000000
      2.67857143	     -3.57600821	     -4.15354322	      2.42164252	      1.01602751	      0.93051016	      0.43913870	      9.04955695	     -5.98978710	    -12.03961509	     38.82707939	     38.82707939	      8.94504125	     -3.62772833	    -14.29420554	     19.75474841	     -6.30587123	     -6.46044900	     24.19386756	     24.19386756	     10.45980645	    -12.80415009	      3.18853816	     -8.04097146	      5.54450499	      4.24885298	     18.18455304	    -15.19202524	     -7.91079647	     39.60009674	     45.86830855	      0.00000000	      0.00000000	      7.24593333	    -11.38180117	      0.80111124	     32.51339056	     45.13384006	      0.00000000	      0.00000000
      2.69178571	     -3.49025100	     -4.10306631	      2.21091779	      1.01551234	      0.93072397	      0.43677537	     10.92180363	     -6.52955613	    -10.98072229	     42.49704922	     42.49704922	      7.24291766	     -5.19587273	    -14.67140312	     19.18752273	     -6.15724103	     -6.70857440	     24.06790565	     24.06790565	     10.73019245	    -12.75185676	      2.92391200	     -8.25188042	      5.51567081	      4.12684086	     16.57015451	    -14.92529305	     -7.46033575	     38.09859771	     45.89096762	      0.00000000	      0.00000000	      8.87177056	    -11.95779481	      0.60292109	     33.55410978	     45.19247404	      0.00000000	      0.00000000
      2.70500000	     -3.48218696	     -4.15294356	      1.98868721	      1.01486738	      0.93073778	      0.43473018	     12.92788716	     -6.77532093	     -9.75461796	     46.04761470	     46.04761470	      5.29470919	     -7.17120052	    -14.75932669	     18.76730595	     -6.14241622	     -6.93546379	     24.01547003	     24.01547003	     10.99034613	    -12.70237580	      2.47734426	     -8.37466265	      5.59128895	      4.22803421	     14.97184890	    -14.79470361	     -6.76827414	     36.02905072	     45.92266680	      0.00000000	      0.00000000	     10.52927749	    -12.47690586	      0.38561542	     35.02215011	     45.25840136	      0.00000000	      0.00000000
      2.71821429	     -3.32007576	     -4.04282161	      1.78836372	      1.01422820	      0.93085866	      0.43273767	     14.79419390	     -7.24565654	     -8.74587347	     49.55751454	     49.55751454	      3.52269122	     -8.31602823	    -14.55566103	     18.19152008	     -5.98254367	     -7.26562070	     24.01225665	     24.01225665	     11.23674946	    -12.58105264	      2.19441305	     -8.66001989	      5.42174485	      3.87308894	     13.45293029	    -14.36883804	     -6.37227851	     34.75700070	     45.93893235	      0.00000000	      0.00000000	     12.12966744	    -13.20580289	      0.18284546	     36.07195119	     45.31390690	      0.00000000	      0.00000000
      2.73142857	     -3.24735549	     -4.02409170	      1.58401230	      1.01351738	      0.93087584	      0.43103182	     16.71859535	     -7.45268415	     -7.67222696	     52.78430812	     52.78430812	      1.82416832	     -9.44318964	    -13.95103478	     17.72132979	     -5.93035136	     -7.58062394	     23.99233806	     23.99233806	     11.54343426	    -12.43447538	      1.86806931	     -8.83403464	      5.38785940	      3.72230659	     11.81364009	    -14.05159938	     -5.96775206	     33.33496498	     45.95992954	      0.00000000	      0.00000000	     13.73659874	    -13.84126444	     -0.02791910	     37.32018767	     45.37064781	      0.00000000	      0.00000000
      2.74464286	     -3.14052735	     -4.14906379	      1.34954172	      1.01281270	      0.93095084	      0.42964860	     18.65846725	     -7.40796607	     -6.65789633	     55.99078415	     55.99078415	      1.51757742	     -9.56981527	     -9.67485688	     17.22284628	     -6.11182563	     -8.03814999	     23.97430284	     23.97430284	     11.61448735	    -12.08400564	      0.74964839	     -9.02124743	      5.49497460	      3.05253817	     11.33054810	    -13.65349540	     -3.96789773	     29.58916405	     45.99572935	      0.00000000	      0.00000000	     14.21794443	    -14.95345562	     -0.17389776	     40.68869114	     45.46820473	      0.00000000	      0.00000000
      2.75785714	     -2.99034889	     -4.13528522	      1.18039178	      1.01211686	      0.93122765	      0.42823414	     20.28445010	     -7.54700318	     -5.89714475	     58.47480352	     58.47480352	      0.19172394	     -9.96454616	     -9.35206671	     16.64219880	     -6.05488135	     -8.25605623	     23.89056304	     23.89056304	     11.89918555	    -11.98731039	      0.64415945	     -9.26950678	      5.48355259	      2.61895066	      9.67694615	    -13.20953053	     -3.80819972	     28.83983099	     46.00278012	      0.00000000	      0.00000000	     15.84045189	    -15.80074905	     -0.45787821	     41.49628049	     45.52757444	      0.00000000	      0.00000000
      2.77107143	     -2.97397677	     -4.21730139	      0.89415978	      1.01137538	      0.93143342	      0.42719662	     22.01673099	     -7.41880020	     -5.06102885	     60.62265637	     60.62265637	     -0.62356315	    -10.21065398	     -8.06393375	     16.18894843	     -6.17375837	     -8.69287433	     23.80479975	     23.80479975	     12.22849879	    -11.66983579	      0.44660388	     -9.38318532	      5.53214153	      2.96467395	      7.69403680	    -13.11504055	     -3.54786274	     27.67420508	     46.02209620	      0.00000000	      0.00000000	     17.48002353	    -16.11396837	     -0.75386621	     43.16757386	     45.60250689	      0.00000000	      0.00000000
      2.78428571	     -2.91708752	     -4.21288273	      0.66424839	      1.01063305	      0.93179861	      0.42617648	     23.55608843	     -7.39925717	     -4.38527606	     62.31053581	     62.31053581	     -1.22076299	    -10.13768342	     -7.38278195	     15.64557544	     -6.15337144	     -9.01562202	     23.61211753	     23.61211753	     12.50826662	    -11.46264279	      0.35372115	     -9.55200604	      5.53706403	      2.61873025	      6.07583185	    -12.74450600	     -3.42051447	     26.95079443	     46.03200643	      0.00000000	      0.00000000	     18.89439946	    -16.82007395	     -1.02450413	     44.26572581	     45.66126230	      0.00000000	      0.00000000
